<svg xmlns="http://www.w3.org/2000/svg" width="512" height="512" viewBox="0 0 512 512" role="img" aria-labelledby="title desc">
  <title id="title">34 Moto Kurye İstanbul</title>
  <desc id="desc">34 Moto Kurye İstanbul marka işareti</desc>
  <rect width="512" height="512" rx="96" fill="#111111"/>
  <rect x="44" y="44" width="424" height="424" rx="76" fill="#f3efe6"/>
  <path d="M120 326h68l32-132h58l-16 66h44c43 0 70 20 70 59 0 42-29 67-77 67H170l14-60h-38l-26 60H76l44-100zm94 0h92c18 0 28-9 28-24 0-12-8-18-24-18h-82l-14 42z" fill="#111111"/>
  <text x="256" y="160" text-anchor="middle" font-family="Arial, Helvetica, sans-serif" font-size="92" font-weight="700" fill="#111111">34</text>
</svg>